<mxfile host="app.diagrams.net" modified="2024-04-15T23:14:03.249Z" agent="Mozilla/5.0 (Windows NT 10.0; Win64; x64) AppleWebKit/537.36 (KHTML, like Gecko) Chrome/123.0.0.0 Safari/537.36" etag="tZKp7AVhQECTPAED4zvQ" version="24.2.2" type="device">
  <diagram id="C5RBs43oDa-KdzZeNtuy" name="Page-1">
    <mxGraphModel dx="2623" dy="496" grid="1" gridSize="10" guides="1" tooltips="1" connect="1" arrows="1" fold="1" page="1" pageScale="1" pageWidth="827" pageHeight="1169" math="0" shadow="0">
      <root>
        <mxCell id="WIyWlLk6GJQsqaUBKTNV-0" />
        <mxCell id="WIyWlLk6GJQsqaUBKTNV-1" parent="WIyWlLk6GJQsqaUBKTNV-0" />
        <mxCell id="er0qR_0mWNC9MTwE13Gd-0" value="&lt;font style=&quot;font-size: 12px;&quot;&gt;BacktestingServer(standard_details: dict, sql_details: dict)&lt;/font&gt;" style="swimlane;fontStyle=1;align=center;verticalAlign=top;childLayout=stackLayout;horizontal=1;startSize=26;horizontalStack=0;resizeParent=1;resizeParentMax=0;resizeLast=0;collapsible=1;marginBottom=0;whiteSpace=wrap;html=1;fillColor=#dae8fc;strokeColor=#6c8ebf;" vertex="1" parent="WIyWlLk6GJQsqaUBKTNV-1">
          <mxGeometry x="-1040" y="390" width="410" height="180" as="geometry" />
        </mxCell>
        <mxCell id="er0qR_0mWNC9MTwE13Gd-1" value="+ standard_details: dict&lt;div&gt;+ sql_details: dict&lt;/div&gt;&lt;div&gt;+ channel: paramiko.Channel&lt;/div&gt;&lt;div&gt;+ cursor: pymysql.cursors.Cursor&lt;/div&gt;&lt;div&gt;&lt;br&gt;&lt;/div&gt;&lt;div&gt;&lt;br&gt;&lt;/div&gt;" style="text;strokeColor=none;fillColor=none;align=left;verticalAlign=top;spacingLeft=4;spacingRight=4;overflow=hidden;rotatable=0;points=[[0,0.5],[1,0.5]];portConstraint=eastwest;whiteSpace=wrap;html=1;" vertex="1" parent="er0qR_0mWNC9MTwE13Gd-0">
          <mxGeometry y="26" width="410" height="74" as="geometry" />
        </mxCell>
        <mxCell id="er0qR_0mWNC9MTwE13Gd-2" value="" style="line;strokeWidth=1;fillColor=none;align=left;verticalAlign=middle;spacingTop=-1;spacingLeft=3;spacingRight=3;rotatable=0;labelPosition=right;points=[];portConstraint=eastwest;strokeColor=inherit;" vertex="1" parent="er0qR_0mWNC9MTwE13Gd-0">
          <mxGeometry y="100" width="410" height="8" as="geometry" />
        </mxCell>
        <mxCell id="er0qR_0mWNC9MTwE13Gd-3" value="+ connect(database: str): tuple[paramiko.Channel, pymysql.cursors.Cursor] | tuple[None, None]&lt;div&gt;+ upload_historical_data(instrument: ig_package.Instrument, dataset: pd.DataFrame): None&lt;/div&gt;" style="text;strokeColor=none;fillColor=none;align=left;verticalAlign=top;spacingLeft=4;spacingRight=4;overflow=hidden;rotatable=0;points=[[0,0.5],[1,0.5]];portConstraint=eastwest;whiteSpace=wrap;html=1;" vertex="1" parent="er0qR_0mWNC9MTwE13Gd-0">
          <mxGeometry y="108" width="410" height="72" as="geometry" />
        </mxCell>
      </root>
    </mxGraphModel>
  </diagram>
</mxfile>
